<svg width="437" height="376" viewBox="0 0 437 376" fill="none" xmlns="http://www.w3.org/2000/svg">
<path d="M404.898 69.1201L272.093 31.9011C265.845 30.1499 259.651 34.8466 259.651 41.3357V158.681C259.651 162.823 262.256 166.518 266.157 167.909L400.393 215.79C406.773 218.065 413.482 213.335 413.482 206.561V80.4417C413.482 75.1701 409.974 70.5427 404.898 69.1201Z" fill="#FF412B"/>
<path d="M282.188 62.7085L336.078 77.4058M324.32 91.1232L282.188 79.3654M282.188 98.9618L309.622 106.8" stroke="#F2F2F7" stroke-width="7.83855" stroke-linecap="round"/>
<path d="M283.715 1.03399L268.471 2.93946H275.33L415.444 41.1524L422.303 43.112L426.222 47.0313L427.202 50.9506V194.004L426.222 211.641L423.283 215.56L432.5 209.634C435.305 207.832 437 204.726 437 201.392V45.7637C437 41.3138 434.001 37.4228 429.699 36.2889L300.048 2.12421C294.723 0.721063 289.179 0.350987 283.715 1.03399Z" fill="#081D13"/>
<path d="M262.591 23.5157V12.7681C262.591 6.32589 268.701 1.63673 274.924 3.30357L419.937 42.1464C424.221 43.2939 427.2 47.1759 427.2 51.6109V67.6075M262.591 23.5157V157.627C262.591 161.806 265.241 165.525 269.191 166.888L292.284 174.861M262.591 23.5157L427.2 67.6075M427.2 67.6075V207.691C427.2 214.423 420.568 219.149 414.205 216.952L357.077 197.23" stroke="#081D13" stroke-width="1.95964"/>
<path d="M174.406 62.708C175.37 66.0164 171.561 66.3653 171.467 64.6677C143.125 -32.0995 24.963 31.2852 55.8481 109.739L65.0152 125.958C67.1364 129.711 71.4681 131.649 75.6621 130.652C90.9164 127.024 101.47 123.578 116.659 117.558C119.664 116.367 123.177 116.694 125.496 118.947C128.176 121.552 129.702 124.185 130.587 127.948C131.118 130.205 133.3 131.774 135.549 131.212C137.548 130.712 138.772 128.712 138.441 126.679C136.241 113.166 140.13 108.299 151.87 102.881C164.608 97.0018 208.7 67.6063 218.498 52.909C228.296 38.2118 214.388 36.2096 208.7 38.2118C194.113 44.2341 185.506 47.4516 171.52 48.7474C170.112 48.8779 169.267 50.3959 169.893 51.6647C171.915 55.7661 172.702 58.141 174.406 62.708Z" fill="#081D13" stroke="#081D13" stroke-width="1.95964"/>
<ellipse cx="274.349" cy="14.6974" rx="2.93946" ry="3.91928" transform="rotate(-11.8283 274.349 14.6974)" fill="#07B386"/>
<ellipse cx="282.972" cy="17.8327" rx="2.93946" ry="3.91928" transform="rotate(-11.2387 282.972 17.8327)" fill="#F58A3C"/>
<ellipse cx="291.986" cy="20.5771" rx="2.93946" ry="3.91928" transform="rotate(-9.58704 291.986 20.5771)" fill="#F74A46"/>
<path d="M293.724 168.46V172.779L290.845 188.617L351.317 204.455L358.516 195.816L351.317 191.497L358.516 184.298L359.956 175.659L355.637 171.339L361.396 168.46L370.035 167.02L380.114 162.7L382.993 156.941L375.794 152.621H367.155H352.757L349.422 151.182L345.558 145.422H339.799L329.72 152.621L322.521 154.061L315.322 152.621L312.442 148.302L306.683 146.862L302.363 151.182L298.044 155.501H282.206L272.127 156.941L269.247 165.58L277.886 169.899L293.724 168.46Z" fill="white"/>
<path d="M73.4864 179.307C83.2521 160.519 82.8522 152.726 79.3653 140.114C87.522 149.733 86.7808 158.823 79.3653 179.307C98.2247 181.973 108.764 183.028 128.356 194.984C133.255 184.206 125.454 165.559 133.255 153.831C187.145 191.065 180.561 145.1 178.327 99.9414C186.166 130.316 192.761 185.1 148.932 168.529C138.473 176.82 134.679 182.802 133.255 196.943C149.096 206.788 157.848 212.86 171.468 232.217L218.124 300.829C219.699 303.145 223.125 303.109 224.652 300.761L272.39 227.318C285.148 208.006 288.989 195.314 291.986 170.488C291.986 170.488 274.349 172.448 269.45 170.488C264.551 168.529 264.551 155.791 273.369 153.831L327.259 151.872L322.36 155.791L279.248 158.731C274.319 158.653 270.43 166.569 278.269 167.549C286.107 168.529 316.481 164.609 316.481 164.609L329.219 150.892C340.977 135.215 353.331 144.992 350.775 151.872C356.654 152.852 364.759 160.654 355.674 174.408C361.553 172.448 366.165 178.165 356.654 190.085C366.452 200.863 349.834 211.315 323.34 220.459C295.867 296.65 276.731 333.806 253.773 360.573C231.637 390.409 202.517 371.361 170.279 344.405C169.338 343.618 169.273 342.192 170.14 341.325C170.896 340.57 172.109 340.513 172.941 341.183C202.268 364.812 219.051 377.839 240.056 354.694C257.441 327.251 272.39 311.582 288.067 286.107C303.744 260.632 310.665 245.618 319.421 216.54C334.109 212.856 352.735 200.863 354.694 198.903C356.654 196.943 355.674 193.024 353.715 193.024C352.141 193.024 339.824 198.08 335.034 200.071C334.815 200.162 334.644 199.851 334.841 199.718C340.262 196.052 356.815 184.702 357.634 182.246C358.614 179.307 359.716 175.261 355.674 175.387L336.436 187.297C335.689 187.886 335.207 188.191 335.098 188.125L336.436 187.297C341.039 183.666 355.723 169.218 355.674 163.63C355.617 157.134 351.951 155.442 349.795 157.751C343.33 166.21 339.523 169.846 333.119 172.972C332.923 173.067 332.745 172.821 332.895 172.663C340.783 164.362 345.905 155.645 346.856 150.892C347.836 145.993 343.259 145.539 339.997 146.973L311.08 176.822C310.279 177.649 308.956 177.66 308.141 176.846C307.336 176.04 307.336 174.735 308.141 173.929L313.542 168.529L295.905 169.509C291.006 182.246 295.33 197.322 284.147 216.54C261.273 255.16 247.841 277.598 224.66 309.179C223.081 311.33 219.856 311.299 218.318 309.12L197.923 280.228C180.875 313.252 170.287 331.278 149.912 352.735C106.43 313.831 96.9622 297.019 89.1635 275.329C110.66 310.874 124.565 324.472 149.912 346.856C168.335 323.529 177.953 308.19 194.004 277.289C160.69 211.641 119.776 183.176 73.4864 183.226C39.1928 190.085 13.0692 261.107 0 334.118C3.66334 263.74 39.2102 182.522 73.4864 179.307Z" fill="#081D13"/>
<path d="M375.27 150.891C365.586 149.99 360.224 149.987 350.775 150.891V151.871L352.734 152.851L355.674 153.831L375.27 154.81C379.95 155.235 381.149 159.71 377.23 161.669C373.31 163.629 359.593 168.528 359.593 168.528C365.493 168.398 368.938 167.94 375.27 166.568C389.967 162.649 387.378 153.702 375.27 150.891Z" fill="#081D13"/>
<path d="M302.764 152.852H297.865C297.865 142.073 316.482 142.073 317.462 151.871L312.563 151.871C310.603 145.992 303.497 148.019 302.764 152.852Z" fill="#081D13"/>
<mask id="mask0_5_300" style="mask-type:alpha" maskUnits="userSpaceOnUse" x="1" y="179" width="75" height="156">
<path d="M67.9582 210.881C75.7823 198.003 76.2863 191.544 71.8557 181C51.069 183.598 10.5408 248.88 3 333.002H44.5732C57.5649 333.002 54.9665 322.609 52.3682 318.711C49.7699 314.814 48.4707 313.515 48.4707 309.617C48.4707 305.72 53.6674 300.523 53.6674 294.027C53.6674 287.531 44.5732 284.933 44.5732 274.54C44.5732 264.146 67.9582 234.266 69.2573 226.471C70.5565 218.676 66.1436 215.63 67.9582 210.881Z" fill="black" stroke="white" stroke-width="2.59833"/>
</mask>
<g mask="url(#mask0_5_300)">
<circle cx="1.15212" cy="182.668" r="1.96316" fill="black"/>
<circle cx="11.0784" cy="182.668" r="1.96316" fill="black"/>
<circle cx="21.0047" cy="182.668" r="1.96316" fill="black"/>
<circle cx="30.9309" cy="182.668" r="1.96316" fill="black"/>
<circle cx="40.8572" cy="182.668" r="1.96316" fill="black"/>
<circle cx="50.7835" cy="182.668" r="1.96316" fill="black"/>
<circle cx="60.7097" cy="182.668" r="1.96316" fill="black"/>
<circle cx="70.636" cy="182.668" r="1.96316" fill="black"/>
<circle cx="5.07864" cy="192.595" r="1.96316" fill="black"/>
<circle cx="15.0049" cy="192.595" r="1.96316" fill="black"/>
<circle cx="24.9312" cy="192.595" r="1.96316" fill="black"/>
<circle cx="34.8574" cy="192.595" r="1.96316" fill="black"/>
<circle cx="44.7837" cy="192.595" r="1.96316" fill="black"/>
<circle cx="54.71" cy="192.595" r="1.96316" fill="black"/>
<circle cx="64.6363" cy="192.595" r="1.96316" fill="black"/>
<circle cx="74.5625" cy="192.595" r="1.96316" fill="black"/>
<circle cx="1.15212" cy="202.521" r="1.96316" fill="black"/>
<circle cx="11.0784" cy="202.521" r="1.96316" fill="black"/>
<circle cx="21.0047" cy="202.521" r="1.96316" fill="black"/>
<circle cx="30.9309" cy="202.521" r="1.96316" fill="black"/>
<circle cx="40.8572" cy="202.521" r="1.96316" fill="black"/>
<circle cx="50.7835" cy="202.521" r="1.96316" fill="black"/>
<circle cx="60.7097" cy="202.521" r="1.96316" fill="black"/>
<circle cx="70.636" cy="202.521" r="1.96316" fill="black"/>
<circle cx="5.07864" cy="212.447" r="1.96316" fill="black"/>
<circle cx="15.0049" cy="212.447" r="1.96316" fill="black"/>
<circle cx="24.9312" cy="212.447" r="1.96316" fill="black"/>
<circle cx="34.8574" cy="212.447" r="1.96316" fill="black"/>
<circle cx="44.7837" cy="212.447" r="1.96316" fill="black"/>
<circle cx="54.71" cy="212.447" r="1.96316" fill="black"/>
<circle cx="64.6363" cy="212.447" r="1.96316" fill="black"/>
<circle cx="74.5625" cy="212.447" r="1.96316" fill="black"/>
<circle cx="1.15212" cy="222.373" r="1.96316" fill="black"/>
<circle cx="11.0784" cy="222.373" r="1.96316" fill="black"/>
<circle cx="21.0047" cy="222.373" r="1.96316" fill="black"/>
<circle cx="30.9309" cy="222.373" r="1.96316" fill="black"/>
<circle cx="40.8572" cy="222.373" r="1.96316" fill="black"/>
<circle cx="50.7835" cy="222.373" r="1.96316" fill="black"/>
<circle cx="60.7097" cy="222.373" r="1.96316" fill="black"/>
<circle cx="70.636" cy="222.373" r="1.96316" fill="black"/>
<circle cx="5.07864" cy="232.3" r="1.96316" fill="black"/>
<circle cx="15.0049" cy="232.3" r="1.96316" fill="black"/>
<circle cx="24.9312" cy="232.3" r="1.96316" fill="black"/>
<circle cx="34.8574" cy="232.3" r="1.96316" fill="black"/>
<circle cx="44.7837" cy="232.3" r="1.96316" fill="black"/>
<circle cx="54.71" cy="232.3" r="1.96316" fill="black"/>
<circle cx="64.6363" cy="232.3" r="1.96316" fill="black"/>
<circle cx="74.5625" cy="232.3" r="1.96316" fill="black"/>
<circle cx="1.15212" cy="242.226" r="1.96316" fill="black"/>
<circle cx="11.0784" cy="242.226" r="1.96316" fill="black"/>
<circle cx="21.0047" cy="242.226" r="1.96316" fill="black"/>
<circle cx="30.9309" cy="242.226" r="1.96316" fill="black"/>
<circle cx="40.8572" cy="242.226" r="1.96316" fill="black"/>
<circle cx="50.7835" cy="242.226" r="1.96316" fill="black"/>
<circle cx="60.7097" cy="242.226" r="1.96316" fill="black"/>
<circle cx="70.636" cy="242.226" r="1.96316" fill="black"/>
<circle cx="5.07864" cy="252.152" r="1.96316" fill="black"/>
<circle cx="15.0049" cy="252.152" r="1.96316" fill="black"/>
<circle cx="24.9312" cy="252.152" r="1.96316" fill="black"/>
<circle cx="34.8574" cy="252.152" r="1.96316" fill="black"/>
<circle cx="44.7837" cy="252.152" r="1.96316" fill="black"/>
<circle cx="54.71" cy="252.152" r="1.96316" fill="black"/>
<circle cx="64.6363" cy="252.152" r="1.96316" fill="black"/>
<circle cx="74.5625" cy="252.152" r="1.96316" fill="black"/>
<circle cx="1.15212" cy="262.078" r="1.96316" fill="black"/>
<circle cx="11.0784" cy="262.078" r="1.96316" fill="black"/>
<circle cx="21.0047" cy="262.078" r="1.96316" fill="black"/>
<circle cx="30.9309" cy="262.078" r="1.96316" fill="black"/>
<circle cx="40.8572" cy="262.078" r="1.96316" fill="black"/>
<circle cx="50.7835" cy="262.078" r="1.96316" fill="black"/>
<circle cx="60.7097" cy="262.078" r="1.96316" fill="black"/>
<circle cx="70.636" cy="262.078" r="1.96316" fill="black"/>
<circle cx="5.07864" cy="272.005" r="1.96316" fill="black"/>
<circle cx="15.0049" cy="272.005" r="1.96316" fill="black"/>
<circle cx="24.9312" cy="272.005" r="1.96316" fill="black"/>
<circle cx="34.8574" cy="272.005" r="1.96316" fill="black"/>
<circle cx="44.7837" cy="272.005" r="1.96316" fill="black"/>
<circle cx="54.71" cy="272.005" r="1.96316" fill="black"/>
<circle cx="64.6363" cy="272.005" r="1.96316" fill="black"/>
<circle cx="74.5625" cy="272.005" r="1.96316" fill="black"/>
<circle cx="1.15212" cy="281.931" r="1.96316" fill="black"/>
<circle cx="11.0784" cy="281.931" r="1.96316" fill="black"/>
<circle cx="21.0047" cy="281.931" r="1.96316" fill="black"/>
<circle cx="30.9309" cy="281.931" r="1.96316" fill="black"/>
<circle cx="40.8572" cy="281.931" r="1.96316" fill="black"/>
<circle cx="50.7835" cy="281.931" r="1.96316" fill="black"/>
<circle cx="60.7097" cy="281.931" r="1.96316" fill="black"/>
<circle cx="70.636" cy="281.931" r="1.96316" fill="black"/>
<circle cx="5.07864" cy="291.857" r="1.96316" fill="black"/>
<circle cx="15.0049" cy="291.857" r="1.96316" fill="black"/>
<circle cx="24.9312" cy="291.857" r="1.96316" fill="black"/>
<circle cx="34.8574" cy="291.857" r="1.96316" fill="black"/>
<circle cx="44.7837" cy="291.857" r="1.96316" fill="black"/>
<circle cx="54.71" cy="291.857" r="1.96316" fill="black"/>
<circle cx="64.6363" cy="291.857" r="1.96316" fill="black"/>
<circle cx="74.5625" cy="291.857" r="1.96316" fill="black"/>
<circle cx="1.15212" cy="301.783" r="1.96316" fill="black"/>
<circle cx="11.0784" cy="301.783" r="1.96316" fill="black"/>
<circle cx="21.0047" cy="301.783" r="1.96316" fill="black"/>
<circle cx="30.9309" cy="301.783" r="1.96316" fill="black"/>
<circle cx="40.8572" cy="301.783" r="1.96316" fill="black"/>
<circle cx="50.7835" cy="301.783" r="1.96316" fill="black"/>
<circle cx="60.7097" cy="301.783" r="1.96316" fill="black"/>
<circle cx="70.636" cy="301.783" r="1.96316" fill="black"/>
<circle cx="5.07864" cy="311.71" r="1.96316" fill="black"/>
<circle cx="15.0049" cy="311.71" r="1.96316" fill="black"/>
<circle cx="24.9312" cy="311.71" r="1.96316" fill="black"/>
<circle cx="34.8574" cy="311.71" r="1.96316" fill="black"/>
<circle cx="44.7837" cy="311.71" r="1.96316" fill="black"/>
<circle cx="54.71" cy="311.71" r="1.96316" fill="black"/>
<circle cx="64.6363" cy="311.71" r="1.96316" fill="black"/>
<circle cx="74.5625" cy="311.71" r="1.96316" fill="black"/>
<circle cx="1.15212" cy="321.636" r="1.96316" fill="black"/>
<circle cx="11.0784" cy="321.636" r="1.96316" fill="black"/>
<circle cx="21.0047" cy="321.636" r="1.96316" fill="black"/>
<circle cx="30.9309" cy="321.636" r="1.96316" fill="black"/>
<circle cx="40.8572" cy="321.636" r="1.96316" fill="black"/>
<circle cx="50.7835" cy="321.636" r="1.96316" fill="black"/>
<circle cx="60.7097" cy="321.636" r="1.96316" fill="black"/>
<circle cx="70.636" cy="321.636" r="1.96316" fill="black"/>
<circle cx="5.07864" cy="331.562" r="1.96316" fill="black"/>
<circle cx="15.0049" cy="331.562" r="1.96316" fill="black"/>
<circle cx="24.9312" cy="331.562" r="1.96316" fill="black"/>
<circle cx="34.8574" cy="331.562" r="1.96316" fill="black"/>
<circle cx="44.7837" cy="331.562" r="1.96316" fill="black"/>
<circle cx="54.71" cy="331.562" r="1.96316" fill="black"/>
<circle cx="64.6363" cy="331.562" r="1.96316" fill="black"/>
<circle cx="74.5625" cy="331.562" r="1.96316" fill="black"/>
</g>
<mask id="mask1_5_300" style="mask-type:alpha" maskUnits="userSpaceOnUse" x="351" y="75" width="48" height="75">
<path d="M392.807 86.5706L360.807 76.4653C356.94 75.2441 353 78.1314 353 82.1868V132.129C353 134.747 354.697 137.062 357.193 137.85L389.193 147.956C393.06 149.177 397 146.29 397 142.234V92.2921C397 89.6744 395.303 87.3588 392.807 86.5706Z" fill="white" stroke="white" stroke-width="2.31579"/>
</mask>
<g mask="url(#mask1_5_300)">
<circle cx="350.857" cy="74.2996" r="1.96316" fill="white"/>
<circle cx="360.784" cy="74.2996" r="1.96316" fill="white"/>
<circle cx="370.71" cy="74.2996" r="1.96316" fill="white"/>
<circle cx="380.636" cy="74.2996" r="1.96316" fill="white"/>
<circle cx="390.563" cy="74.2996" r="1.96316" fill="white"/>
<circle cx="356.857" cy="84.2259" r="1.96316" fill="white"/>
<circle cx="366.783" cy="84.2259" r="1.96316" fill="white"/>
<circle cx="376.71" cy="84.2259" r="1.96316" fill="white"/>
<circle cx="386.636" cy="84.2259" r="1.96316" fill="white"/>
<circle cx="396.562" cy="84.2259" r="1.96316" fill="white"/>
<circle cx="350.857" cy="94.1521" r="1.96316" fill="white"/>
<circle cx="360.784" cy="94.1521" r="1.96316" fill="white"/>
<circle cx="370.71" cy="94.1521" r="1.96316" fill="white"/>
<circle cx="380.636" cy="94.1521" r="1.96316" fill="white"/>
<circle cx="390.563" cy="94.1521" r="1.96316" fill="white"/>
<circle cx="356.857" cy="104.078" r="1.96316" fill="white"/>
<circle cx="366.783" cy="104.078" r="1.96316" fill="white"/>
<circle cx="376.71" cy="104.078" r="1.96316" fill="white"/>
<circle cx="386.636" cy="104.078" r="1.96316" fill="white"/>
<circle cx="396.562" cy="104.078" r="1.96316" fill="white"/>
<circle cx="350.857" cy="114.005" r="1.96316" fill="white"/>
<circle cx="360.784" cy="114.005" r="1.96316" fill="white"/>
<circle cx="370.71" cy="114.005" r="1.96316" fill="white"/>
<circle cx="380.636" cy="114.005" r="1.96316" fill="white"/>
<circle cx="390.563" cy="114.005" r="1.96316" fill="white"/>
<circle cx="356.857" cy="123.931" r="1.96316" fill="white"/>
<circle cx="366.783" cy="123.931" r="1.96316" fill="white"/>
<circle cx="376.71" cy="123.931" r="1.96316" fill="white"/>
<circle cx="386.636" cy="123.931" r="1.96316" fill="white"/>
<circle cx="396.562" cy="123.931" r="1.96316" fill="white"/>
<circle cx="350.857" cy="133.857" r="1.96316" fill="white"/>
<circle cx="360.784" cy="133.857" r="1.96316" fill="white"/>
<circle cx="370.71" cy="133.857" r="1.96316" fill="white"/>
<circle cx="380.636" cy="133.857" r="1.96316" fill="white"/>
<circle cx="390.563" cy="133.857" r="1.96316" fill="white"/>
<circle cx="356.857" cy="143.783" r="1.96316" fill="white"/>
<circle cx="366.783" cy="143.783" r="1.96316" fill="white"/>
<circle cx="376.71" cy="143.783" r="1.96316" fill="white"/>
<circle cx="386.636" cy="143.783" r="1.96316" fill="white"/>
<circle cx="396.562" cy="143.783" r="1.96316" fill="white"/>
</g>
</svg>
